<?xml version="1.0" encoding="UTF-8"?>
<svg xmlns="http://www.w3.org/2000/svg" viewBox="0 0 2172 250" width="2172" height="250" role="img" aria-labelledby="title">
<title id="title">Hand-drawn clothesline</title>
<path d="M0.0 65.82 L2.0 66.40 L15.0 70.92 L17.0 71.49 L18.0 71.94 L25.0 74.23 L27.0 75.02 L33.0 76.92 L52.0 83.51 L73.0 90.38 L75.0 91.15 L84.0 93.97 L86.0 94.49 L87.0 94.94 L89.0 95.42 L91.0 96.15 L100.0 98.72 L101.0 99.13 L103.0 99.61 L104.0 100.04 L107.0 100.76 L112.0 102.26 L113.0 102.44 L115.0 103.20 L117.0 103.63 L122.0 105.19 L124.0 105.63 L132.0 108.07 L134.0 108.49 L136.0 109.25 L138.0 109.63 L140.0 110.30 L145.0 111.56 L147.0 112.25 L149.0 112.65 L150.0 113.05 L154.0 114.19 L156.0 114.63 L169.0 118.20 L171.0 118.62 L176.0 120.09 L186.0 122.56 L188.0 123.29 L190.0 123.67 L191.0 124.06 L194.0 124.69 L196.0 125.33 L198.0 125.69 L199.0 126.11 L214.0 129.97 L215.0 130.96 L216.0 131.21 L217.0 130.77 L218.0 130.77 L226.0 132.80 L227.0 133.15 L230.0 133.81 L235.0 135.15 L237.0 135.54 L239.0 136.17 L241.0 136.46 L244.0 137.28 L246.0 137.58 L248.0 138.15 L250.0 138.49 L253.0 139.30 L255.0 139.66 L257.0 140.26 L259.0 140.58 L262.0 141.37 L264.0 141.63 L266.0 142.21 L274.0 143.82 L276.0 144.35 L282.0 145.62 L285.0 146.42 L287.0 146.70 L290.0 147.39 L292.0 147.50 L293.0 148.06 L303.0 149.98 L310.0 151.53 L316.0 152.63 L318.0 153.21 L321.0 153.66 L323.0 154.21 L332.0 155.82 L340.0 157.46 L343.0 157.83 L345.0 158.36 L348.0 158.77 L350.0 159.27 L354.0 159.88 L365.0 161.89 L367.0 162.40 L373.0 163.49 L401.0 168.39 L404.0 168.77 L407.0 169.44 L411.0 169.87 L414.0 170.55 L417.0 170.85 L419.0 171.34 L423.0 171.80 L425.0 172.30 L430.0 172.84 L434.0 173.54 L437.0 173.82 L440.0 174.39 L444.0 174.80 L450.0 175.68 L467.0 177.85 L471.0 178.51 L484.0 180.02 L487.0 180.47 L514.0 183.44 L520.0 183.88 L524.0 184.47 L529.0 184.80 L536.0 185.54 L544.0 186.00 L548.0 186.48 L554.0 186.89 L558.0 187.39 L568.0 188.00 L573.0 188.52 L583.0 188.86 L603.0 190.06 L607.0 190.21 L610.0 190.13 L611.0 190.58 L630.0 190.97 L631.0 191.13 L636.0 191.13 L650.0 191.46 L692.0 191.76 L752.0 191.71 L779.0 191.44 L802.0 190.51 L833.0 188.86 L844.0 188.51 L864.0 187.35 L871.0 186.76 L881.0 186.26 L886.0 185.86 L909.0 184.55 L916.0 183.81 L922.0 183.40 L927.0 182.85 L935.0 182.37 L941.0 181.84 L947.0 181.54 L953.0 180.88 L960.0 180.40 L966.0 179.76 L970.0 179.52 L976.0 178.85 L983.0 178.46 L990.0 177.70 L995.0 177.37 L1000.0 176.69 L1006.0 176.28 L1009.0 175.83 L1013.0 175.61 L1017.0 175.23 L1019.0 174.87 L1027.0 174.21 L1030.0 173.79 L1037.0 173.18 L1040.0 172.77 L1045.0 172.45 L1050.0 171.78 L1056.0 171.29 L1064.0 170.42 L1068.0 169.82 L1083.0 168.35 L1087.0 167.75 L1090.0 167.58 L1096.0 166.80 L1102.0 166.29 L1115.0 164.78 L1120.0 164.44 L1133.0 162.78 L1138.0 162.35 L1152.0 160.74 L1158.0 160.21 L1161.0 159.74 L1166.0 159.37 L1171.0 158.73 L1176.0 158.34 L1180.0 157.78 L1186.0 157.26 L1189.0 156.79 L1193.0 156.50 L1200.0 155.66 L1204.0 155.36 L1209.0 154.67 L1212.0 154.43 L1217.0 153.68 L1223.0 153.17 L1227.0 152.64 L1231.0 152.30 L1235.0 151.70 L1246.0 150.43 L1251.0 149.65 L1256.0 149.19 L1259.0 148.64 L1266.0 147.70 L1269.0 147.44 L1279.0 146.19 L1282.0 145.62 L1286.0 145.29 L1289.0 144.71 L1295.0 144.11 L1298.0 143.58 L1303.0 143.16 L1306.0 142.67 L1311.0 142.19 L1315.0 141.50 L1319.0 141.16 L1322.0 140.66 L1327.0 140.25 L1331.0 139.71 L1336.0 139.25 L1340.0 138.61 L1347.0 137.80 L1354.0 137.23 L1358.0 136.64 L1363.0 136.19 L1367.0 135.54 L1396.0 132.18 L1398.0 131.58 L1399.0 132.52 L1401.0 131.64 L1406.0 131.15 L1408.0 130.80 L1415.0 130.10 L1417.0 129.75 L1424.0 129.03 L1427.0 128.59 L1433.0 128.05 L1435.0 127.69 L1441.0 127.16 L1444.0 126.62 L1449.0 126.14 L1452.0 125.55 L1456.0 125.21 L1461.0 124.48 L1465.0 124.18 L1469.0 123.53 L1473.0 123.24 L1479.0 122.46 L1482.0 122.25 L1486.0 121.66 L1497.0 120.49 L1501.0 120.19 L1506.0 119.52 L1510.0 119.17 L1514.0 118.58 L1516.0 118.44 L1528.0 117.02 L1535.0 116.10 L1538.0 115.59 L1544.0 115.00 L1546.0 114.62 L1556.0 113.30 L1558.0 113.14 L1562.0 112.50 L1566.0 112.10 L1570.0 111.46 L1576.0 110.84 L1586.0 109.56 L1593.0 108.91 L1596.0 108.48 L1600.0 108.14 L1605.0 107.44 L1610.0 106.96 L1613.0 106.46 L1618.0 105.89 L1620.0 105.51 L1626.0 104.92 L1628.0 104.57 L1632.0 104.16 L1644.0 102.52 L1648.0 102.12 L1653.0 101.37 L1656.0 101.12 L1657.0 100.85 L1663.0 100.22 L1664.0 99.97 L1679.0 98.21 L1680.0 97.96 L1685.0 97.42 L1686.0 97.20 L1688.0 96.96 L1689.0 97.11 L1690.0 96.65 L1693.0 96.42 L1694.0 96.20 L1701.0 95.42 L1702.0 95.18 L1710.0 94.16 L1727.0 92.20 L1728.0 91.95 L1733.0 91.39 L1734.0 90.98 L1739.0 90.55 L1740.0 90.15 L1747.0 89.55 L1748.0 89.15 L1750.0 89.06 L1774.0 86.00 L1779.0 85.52 L1780.0 85.09 L1786.0 84.56 L1787.0 84.17 L1794.0 83.55 L1795.0 83.14 L1802.0 82.53 L1803.0 82.12 L1810.0 81.52 L1815.0 80.91 L1818.0 80.29 L1828.0 78.91 L1831.0 78.38 L1835.0 78.01 L1839.0 77.26 L1842.0 76.94 L1845.0 76.42 L1850.0 75.77 L1863.0 73.80 L1865.0 73.37 L1870.0 72.81 L1873.0 72.28 L1878.0 71.70 L1881.0 71.13 L1883.0 70.91 L1892.0 69.43 L1898.0 68.63 L1909.0 66.93 L1911.0 66.53 L1916.0 65.83 L1918.0 65.39 L1934.0 62.92 L1938.0 62.12 L1947.0 60.79 L1949.0 60.34 L1961.0 58.59 L1970.0 57.06 L1980.0 55.67 L1982.0 55.24 L2006.0 51.73 L2008.0 51.31 L2019.0 49.68 L2021.0 49.23 L2025.0 48.76 L2028.0 48.14 L2042.0 46.02 L2043.0 45.72 L2048.0 45.07 L2049.0 44.78 L2052.0 44.46 L2053.0 45.00 L2054.0 45.05 L2055.0 43.69 L2060.0 43.03 L2061.0 42.71 L2063.0 42.41 L2069.0 41.74 L2073.0 40.92 L2087.0 38.73 L2090.0 38.13 L2093.0 37.73 L2097.0 36.97 L2100.0 36.58 L2111.0 34.70 L2114.0 34.01 L2117.0 33.55 L2119.0 33.04 L2122.0 32.60 L2124.0 32.11 L2127.0 31.63 L2130.0 30.96 L2132.0 30.69 L2140.0 29.05 L2142.0 28.78 L2145.0 28.08 L2148.0 27.68 L2151.0 27.01 L2155.0 26.44 L2158.0 25.79 L2160.0 25.56 L2163.0 24.84 L2165.0 24.66 L2169.0 23.84 L2171.0 23.58" fill="none" stroke="#111111" stroke-width="1.5" stroke-linecap="round" stroke-linejoin="round" vector-effect="non-scaling-stroke"/>
</svg>
